<?xml version="1.0" encoding="UTF-8" standalone="no"?>
<svg
   xmlns:dc="http://purl.org/dc/elements/1.1/"
   xmlns:cc="http://creativecommons.org/ns#"
   xmlns:rdf="http://www.w3.org/1999/02/22-rdf-syntax-ns#"
   xmlns:svg="http://www.w3.org/2000/svg"
   xmlns="http://www.w3.org/2000/svg"
   xmlns:sodipodi="http://sodipodi.sourceforge.net/DTD/sodipodi-0.dtd"
   xmlns:inkscape="http://www.inkscape.org/namespaces/inkscape"
   width="446.68384"
   height="289.43073"
   viewBox="0 0 118.1851 76.578546"
   version="1.1"
   id="svg5447"
   inkscape:version="1.0rc1 (09960d6, 2020-04-09)"
   sodipodi:docname="zug-logo.svg">
  <defs
     id="defs5441" />
  <sodipodi:namedview
     id="base"
     pagecolor="#ffffff"
     bordercolor="#666666"
     borderopacity="1.0"
     inkscape:pageopacity="0.0"
     inkscape:pageshadow="2"
     inkscape:zoom="0.74510206"
     inkscape:cx="181.67377"
     inkscape:cy="288.04601"
     inkscape:document-units="mm"
     inkscape:current-layer="g1165"
     showgrid="false"
     fit-margin-top="100"
     fit-margin-left="100"
     fit-margin-right="100"
     fit-margin-bottom="100"
     inkscape:window-width="1144"
     inkscape:window-height="756"
     inkscape:window-x="43"
     inkscape:window-y="22"
     inkscape:window-maximized="0"
     units="px"
     inkscape:document-rotation="0" />
  <metadata
     id="metadata5444">
    <rdf:RDF>
      <cc:Work
         rdf:about="">
        <dc:format>image/svg+xml</dc:format>
        <dc:type
           rdf:resource="http://purl.org/dc/dcmitype/StillImage" />
        <dc:title></dc:title>
      </cc:Work>
    </rdf:RDF>
  </metadata>
  <g
     inkscape:label="Layer 1"
     inkscape:groupmode="layer"
     id="layer1"
     transform="translate(8.0348073,-54.57974)">
    <g
       id="g1165">
      <g
         transform="translate(35.945231,23.12055)"
         id="g1181">
        <path
           d="m 23.933835,101.41098 16.201712,0.005 1.536629,-2.844797 -11.677562,0.06812 12.882886,-11.235653 1.507593,-2.849999 -8.79786,-0.0052 -1.507593,2.850002 4.283306,-0.01482 -12.921517,11.177345 z"
           style="font-style:italic;font-variant:normal;font-weight:bold;font-stretch:normal;font-size:25.4px;line-height:1.25;font-family:'Source Sans Pro';-inkscape-font-specification:'Source Sans Pro Bold Italic';fill:#000000;fill-opacity:1;stroke:none;stroke-width:0.264583"
           id="path254"
           inkscape:connector-curvature="0"
           sodipodi:nodetypes="ccccccccccc" />
        <path
           d="m 43.593498,96.64064 c 0,0 4.820098,0.0078 7.270304,0.0078 l 6.386466,-12.094632 h -3.6576 l -4.911164,9.22891 c -2.005028,0.04632 -1.293896,0.05605 -2.005028,0.04632 -1.146472,-0.01568 -1.091566,-0.673013 -0.789245,-1.219199 1.352907,-2.581062 2.793207,-5.352792 4.200238,-8.056033 h -3.6576 c -0.872667,1.689692 -4.199106,7.782987 -4.734198,8.849203 -0.94062,1.835619 -0.545671,3.268952 1.897843,3.237586 z"
           style="font-style:italic;font-variant:normal;font-weight:bold;font-stretch:normal;font-size:25.4px;line-height:1.25;font-family:'Source Sans Pro';-inkscape-font-specification:'Source Sans Pro Bold Italic';fill:#000000;fill-opacity:1;stroke:none;stroke-width:0.264583"
           id="path256"
           inkscape:connector-curvature="0"
           sodipodi:nodetypes="cccccscccccc" />
        <path
           d="m 54.804773,101.42832 c 3.504691,0.0132 5.972277,-0.84707 8.016659,-4.55547 l 6.461601,-12.293902 c -11.394349,0.01003 -10.985995,1.600448 -13.396567,5.851716 l -3.181414,6.080713 c 0,0 2.627069,0.07908 3.675233,0.07908 1.3716,0 3.207916,0.0053 3.207916,0.0053 -1.267888,2.064324 -2.597908,1.93854 -4.235842,1.988736 l -3.756634,-0.02396 -1.507595,2.850007 z m 2.189623,-7.626479 c 0,0 1.069589,-2.206196 1.698306,-3.501596 1.293273,-2.216091 2.052073,-3.232219 5.843442,-3.072438 l -3.455388,6.510123 z"
           style="font-style:italic;font-variant:normal;font-weight:bold;font-stretch:normal;font-size:25.4px;line-height:1.25;font-family:'Source Sans Pro';-inkscape-font-specification:'Source Sans Pro Bold Italic';fill:#000000;fill-opacity:1;stroke:none;stroke-width:0.264583"
           id="path258"
           inkscape:connector-curvature="0"
           sodipodi:nodetypes="sccccsccccsccccc" />
        <rect
           transform="matrix(1,0,-0.46759024,0.88394534,0,0)"
           style="fill:#ff0000;stroke-width:0.281416"
           y="111.51276"
           x="99.427399"
           height="3.2241812"
           width="2.8499999"
           id="rect261" />
        <path
           sodipodi:nodetypes="cccc"
           inkscape:connector-curvature="0"
           d="m 32.630471,88.456787 h 2.85 c -1.583843,1.42511 -3.865526,3.31712 -5.4974,4.68635 z"
           style="fill:#ff0000;stroke-width:0.264583"
           id="rect267" />
        <rect
           id="rect286"
           width="2.8499999"
           height="3.2241812"
           x="95.166"
           y="111.50687"
           style="fill:#000000;stroke:none;stroke-width:0.28186;stroke-miterlimit:4;stroke-dasharray:none;stroke-opacity:1"
           transform="matrix(1,0,-0.46759024,0.88394534,0,0)" />
        <rect
           id="rect1121"
           width="1.1536064"
           height="1.8344625"
           x="89.285057"
           y="110.74258"
           style="fill:#ffffff;stroke-width:0.165811"
           transform="matrix(1,0,-0.46442915,0.88561028,0,0)" />
        <path
           id="path1137"
           style="fill:#ff0000;stroke-width:0.264583"
           d="m 40.525694,93.143137 h -2.85 c 1.583843,-1.42511 3.865526,-3.31712 5.4974,-4.68635 z"
           inkscape:connector-curvature="0"
           sodipodi:nodetypes="cccc" />
        <path
           sodipodi:nodetypes="cccc"
           inkscape:connector-curvature="0"
           d="m 95.715393,100.66116 h 1.560967 v 4.67819 c -1.954327,0.0125 -1.470927,-0.11762 -1.560967,-4.67819 z"
           transform="matrix(1,0,-0.46759024,0.88394534,0,0)"
           inkscape:transform-center-y="5.7039679e-06"
           inkscape:transform-center-x="-0.43383705"
           style="fill:#ff0000;stroke-width:0.240206"
           id="rect1143" />
        <rect
           transform="matrix(1,0,-0.46759024,0.88394534,0,0)"
           style="fill:#ff0000;stroke-width:0.240206"
           y="100.66116"
           x="114.88628"
           height="4.6781921"
           width="1.2586081"
           id="rect1145"
           inkscape:transform-center-x="-0.43383705"
           inkscape:transform-center-y="5.7039679e-06" />
        <path
           sodipodi:nodetypes="cccc"
           inkscape:connector-curvature="0"
           d="m 62.674596,88.978963 -2.18748,4.135273 h -2.28939 c 1.659272,-3.239005 1.49512,-4.135273 4.47687,-4.135273 z"
           inkscape:transform-center-y="5.7039679e-06"
           inkscape:transform-center-x="-0.43383705"
           style="fill:#ff0000;stroke-width:0.225838"
           id="rect1147" />
      </g>
      <g
         transform="translate(26.191249,-6.5026552)"
         id="g1213">
        <path
           sodipodi:nodetypes="ccccccccccc"
           inkscape:connector-curvature="0"
           id="path1183"
           style="font-style:italic;font-variant:normal;font-weight:bold;font-stretch:normal;font-size:25.4px;line-height:1.25;font-family:'Source Sans Pro';-inkscape-font-specification:'Source Sans Pro Bold Italic';fill:#000000;fill-opacity:1;stroke:none;stroke-width:0.264583"
           d="m 23.933835,101.41098 16.201712,0.005 1.536629,-2.844797 -11.677562,0.06812 12.882886,-11.235653 1.507593,-2.849999 -8.79786,-0.0052 -1.507593,2.850002 4.283306,-0.01482 -12.921517,11.177345 z" />
        <path
           sodipodi:nodetypes="cccccscccccc"
           inkscape:connector-curvature="0"
           id="path1185"
           style="font-style:italic;font-variant:normal;font-weight:bold;font-stretch:normal;font-size:25.4px;line-height:1.25;font-family:'Source Sans Pro';-inkscape-font-specification:'Source Sans Pro Bold Italic';fill:#000000;fill-opacity:1;stroke:none;stroke-width:0.264583"
           d="m 43.593498,96.64064 c 0,0 4.820098,0.0078 7.270304,0.0078 l 6.386466,-12.094632 h -3.6576 l -4.911164,9.22891 c -2.005028,0.04632 -1.293896,0.05605 -2.005028,0.04632 -1.146472,-0.01568 -1.091566,-0.673013 -0.789245,-1.219199 1.352907,-2.581062 2.793207,-5.352792 4.200238,-8.056033 h -3.6576 c -0.872667,1.689692 -4.199106,7.782987 -4.734198,8.849203 -0.94062,1.835619 -0.545671,3.268952 1.897843,3.237586 z" />
        <path
           sodipodi:nodetypes="sccccsccccsccccc"
           inkscape:connector-curvature="0"
           id="path1187"
           style="font-style:italic;font-variant:normal;font-weight:bold;font-stretch:normal;font-size:25.4px;line-height:1.25;font-family:'Source Sans Pro';-inkscape-font-specification:'Source Sans Pro Bold Italic';fill:#000000;fill-opacity:1;stroke:none;stroke-width:0.264583"
           d="m 54.804773,101.42832 c 3.504691,0.0132 5.972277,-0.84707 8.016659,-4.55547 l 6.461601,-12.293902 c -11.394349,0.01003 -10.985995,1.600448 -13.396567,5.851716 l -3.181414,6.080713 c 0,0 2.627069,0.07908 3.675233,0.07908 1.3716,0 3.207916,0.0053 3.207916,0.0053 -1.267888,2.064324 -2.597908,1.93854 -4.235842,1.988736 l -3.756634,-0.02396 -1.507595,2.850007 z m 2.189623,-7.626479 c 0,0 1.069589,-2.206196 1.698306,-3.501596 1.293273,-2.216091 2.052073,-3.232219 5.843442,-3.072438 l -3.455388,6.510123 z" />
        <rect
           id="rect1189"
           width="2.8499999"
           height="3.2241812"
           x="99.427399"
           y="111.51276"
           style="fill:#ff0000;stroke-width:0.281416"
           transform="matrix(1,0,-0.46759024,0.88394534,0,0)" />
        <path
           id="path1191"
           style="fill:#ff0000;stroke-width:0.264583"
           d="m 32.630471,88.456787 h 2.85 c -1.583843,1.42511 -3.865526,3.31712 -5.4974,4.68635 z"
           inkscape:connector-curvature="0"
           sodipodi:nodetypes="cccc" />
        <rect
           transform="matrix(1,0,-0.46759024,0.88394534,0,0)"
           style="fill:#000000;stroke:none;stroke-width:0.28186;stroke-miterlimit:4;stroke-dasharray:none;stroke-opacity:1"
           y="111.50687"
           x="95.166"
           height="3.2241812"
           width="2.8499999"
           id="rect1193" />
      </g>
      <g
         id="g1227"
         transform="translate(-27.420528,-23.43269)">
        <path
           d="m 23.933835,101.41098 16.201712,0.005 1.536629,-2.844797 -11.677562,0.06812 12.882886,-11.235653 1.507593,-2.849999 -8.79786,-0.0052 -1.507593,2.850002 4.283306,-0.01482 -12.921517,11.177345 z"
           style="font-style:italic;font-variant:normal;font-weight:bold;font-stretch:normal;font-size:25.4px;line-height:1.25;font-family:'Source Sans Pro';-inkscape-font-specification:'Source Sans Pro Bold Italic';fill:#000000;fill-opacity:1;stroke:none;stroke-width:0.264583"
           id="path1215"
           inkscape:connector-curvature="0"
           sodipodi:nodetypes="ccccccccccc" />
        <path
           d="m 43.593498,96.64064 c 0,0 4.820098,0.0078 7.270304,0.0078 l 6.386466,-12.094632 h -3.6576 l -4.911164,9.22891 c -2.005028,0.04632 -1.293896,0.05605 -2.005028,0.04632 -1.146472,-0.01568 -1.091566,-0.673013 -0.789245,-1.219199 1.352907,-2.581062 2.793207,-5.352792 4.200238,-8.056033 h -3.6576 c -0.872667,1.689692 -4.199106,7.782987 -4.734198,8.849203 -0.94062,1.835619 -0.545671,3.268952 1.897843,3.237586 z"
           style="font-style:italic;font-variant:normal;font-weight:bold;font-stretch:normal;font-size:25.4px;line-height:1.25;font-family:'Source Sans Pro';-inkscape-font-specification:'Source Sans Pro Bold Italic';fill:#000000;fill-opacity:1;stroke:none;stroke-width:0.264583"
           id="path1217"
           inkscape:connector-curvature="0"
           sodipodi:nodetypes="cccccscccccc" />
        <path
           d="m 54.804773,101.42832 c 3.504691,0.0132 5.972277,-0.84707 8.016659,-4.55547 l 6.461601,-12.293902 c -11.394349,0.01003 -10.985995,1.600448 -13.396567,5.851716 l -3.181414,6.080713 c 0,0 2.627069,0.07908 3.675233,0.07908 1.3716,0 3.207916,0.0053 3.207916,0.0053 -1.267888,2.064324 -2.597908,1.93854 -4.235842,1.988736 l -3.756634,-0.02396 -1.507595,2.850007 z m 2.189623,-7.626479 c 0,0 1.069589,-2.206196 1.698306,-3.501596 1.293273,-2.216091 2.052073,-3.232219 5.843442,-3.072438 l -3.455388,6.510123 z"
           style="font-style:italic;font-variant:normal;font-weight:bold;font-stretch:normal;font-size:25.4px;line-height:1.25;font-family:'Source Sans Pro';-inkscape-font-specification:'Source Sans Pro Bold Italic';fill:#000000;fill-opacity:1;stroke:none;stroke-width:0.264583"
           id="path1219"
           inkscape:connector-curvature="0"
           sodipodi:nodetypes="sccccsccccsccccc" />
        <rect
           transform="matrix(1,0,-0.46759024,0.88394534,0,0)"
           style="fill:#000000;stroke-width:0.281416"
           y="111.51276"
           x="99.427399"
           height="3.2241812"
           width="2.8499999"
           id="rect1221" />
        <path
           sodipodi:nodetypes="cccc"
           inkscape:connector-curvature="0"
           d="m 32.630471,88.456787 h 2.85 c -1.583843,1.42511 -3.865526,3.31712 -5.4974,4.68635 z"
           style="fill:#ff0000;stroke-width:0.264583"
           id="path1223" />
        <rect
           id="rect1225"
           width="2.8499999"
           height="3.2241812"
           x="95.166"
           y="111.50687"
           style="fill:#000000;stroke:none;stroke-width:0.28186;stroke-miterlimit:4;stroke-dasharray:none;stroke-opacity:1"
           transform="matrix(1,0,-0.46759024,0.88394534,0,0)" />
      </g>
      <rect
         transform="matrix(1,0,-0.46442915,0.88561028,0,0)"
         style="fill:#ffffff;stroke-width:0.165811"
         y="84.661476"
         x="49.861244"
         height="1.8344625"
         width="1.1536064"
         id="rect1229" />
      <path
         d="m -3.486693,119.05288 20.435045,0.005 1.536629,-2.8448 -15.910895,0.0681 12.882886,-11.23565 1.507593,-2.85 -8.79786,-0.005 -1.507593,2.85 4.283306,-0.0148 -12.921517,11.17734 z"
         style="font-style:italic;font-variant:normal;font-weight:bold;font-stretch:normal;font-size:25.4px;line-height:1.25;font-family:'Source Sans Pro';-inkscape-font-specification:'Source Sans Pro Bold Italic';fill:#000000;fill-opacity:1;stroke:none;stroke-width:0.264583"
         id="path1261"
         inkscape:connector-curvature="0"
         sodipodi:nodetypes="ccccccccccc" />
      <path
         d="m 16.17297,114.28254 c 0,0 4.820098,0.008 7.270304,0.008 L 29.82974,102.1957 h -3.6576 l -4.911164,9.22891 c -2.005028,0.0463 -1.293896,0.056 -2.005028,0.0463 -1.146472,-0.0157 -1.091566,-0.67301 -0.789245,-1.2192 1.352907,-2.58106 2.793207,-5.35279 4.200238,-8.05603 h -3.6576 c -0.872667,1.68969 -4.199106,7.78299 -4.734198,8.84921 -0.94062,1.83561 -0.545671,3.26895 1.897843,3.23758 z"
         style="font-style:italic;font-variant:normal;font-weight:bold;font-stretch:normal;font-size:25.4px;line-height:1.25;font-family:'Source Sans Pro';-inkscape-font-specification:'Source Sans Pro Bold Italic';fill:#000000;fill-opacity:1;stroke:none;stroke-width:0.264583"
         id="path1263"
         inkscape:connector-curvature="0"
         sodipodi:nodetypes="cccccscccccc" />
      <path
         d="m 27.384245,119.07022 c 3.504691,0.0132 5.972277,-0.84707 8.016659,-4.55547 l 6.461601,-12.29391 c -11.394349,0.01 -10.985995,1.60045 -13.396567,5.85172 l -3.181414,6.08071 c 0,0 2.627069,0.0791 3.675233,0.0791 1.3716,0 3.207916,0.005 3.207916,0.005 -1.267888,2.06433 -2.597908,1.93854 -4.235842,1.98874 l -3.756634,-0.024 -1.507595,2.85001 z m 2.189623,-7.62648 c 0,0 1.069589,-2.2062 1.698306,-3.5016 1.293273,-2.21609 2.052073,-3.23222 5.843442,-3.07244 l -3.455388,6.51013 z"
         style="font-style:italic;font-variant:normal;font-weight:bold;font-stretch:normal;font-size:25.4px;line-height:1.25;font-family:'Source Sans Pro';-inkscape-font-specification:'Source Sans Pro Bold Italic';fill:#000000;fill-opacity:1;stroke:none;stroke-width:0.264583"
         id="path1265"
         inkscape:connector-curvature="0"
         sodipodi:nodetypes="sccccsccccsccccc" />
      <rect
         transform="matrix(1,0,-0.46759024,0.88394534,0,0)"
         style="fill:#ff0000;stroke-width:0.281416"
         y="131.47089"
         x="81.339096"
         height="3.2241812"
         width="2.8499999"
         id="rect1267" />
    </g>
  </g>
</svg>
